#!OML:ASF H:\Dans Jumps\Project 1\Capture day 1\Session 1\subject.ASF
:FULLY-SPECIFIED
:DEGREES
141
root 0.560182 17.3943 -14.4776 6.71272 -0.267597 -1.66233
lowerback 1.24884 -0.699966 0.414646
upperback 4.28342 -0.995615 1.87898
thorax 3.73276 -0.51927 1.68268
lowerneck -11.1894 0.413169 -1.73704
upperneck 29.8022 1.01791 -0.0985071
head 11.5335 0.247642 0.396348
rclavicle 1.98785e-016 -2.54444e-014
rhumerus -25.3976 -15.3036 -79.6781
rradius 25.5122
rwrist 29.3517
rhand -18.7236 -26.4223
rfingers 7.12502
rthumb 7.57196 -56.2668
lclavicle 1.98785e-016 -2.54444e-014
lhumerus -20.5685 -0.693651 88.0103
lradius 18.8338
lwrist 6.19793
lhand -26.2504 -4.139
lfingers 7.12502
lthumb 0.303933 25.8405
rfemur -17.9986 -2.18213 20.117
rtibia 28.497
rfoot -15.7229 -3.82793
rtoes 8.28107
lfemur -17.4336 8.28946 -18.3866
ltibia 27.0121
lfoot -13.4651 6.44015
ltoes -2.50441
142
root 0.560124 17.3944 -14.4782 6.70686 -0.268595 -1.66355
lowerback 1.24904 -0.696089 0.417888
upperback 4.27976 -0.990308 1.87604
thorax 3.72859 -0.516433 1.67795
lowerneck -11.2036 0.411582 -1.73439
upperneck 29.8217 1.01646 -0.101157
head 11.5441 0.246763 0.394863
rclavicle -1.2921e-015 -1.11319e-014
rhumerus -25.3781 -15.2893 -79.6891
rradius 25.5184
rwrist 29.3453
rhand -18.7213 -26.4093
rfingers 7.12502
rthumb 7.57415 -56.2537
lclavicle -1.2921e-015 -1.11319e-014
lhumerus -20.546 -0.702877 88.0115
lradius 18.8472
lwrist 6.19691
lhand -26.256 -4.13158
lfingers 7.12502
lthumb 0.298519 25.848
rfemur -17.9933 -2.18249 20.1182
rtibia 28.4962
rfoot -15.7222 -3.82369
rtoes 8.29797
lfemur -17.4295 8.29139 -18.3851
ltibia 27.0116
lfoot -13.4601 6.4414
ltoes -2.50634
143
root 0.560066 17.3944 -14.4791 6.70216 -0.269517 -1.66463
lowerback 1.24868 -0.692305 0.421177
upperback 4.27678 -0.985151 1.87321
thorax 3.72542 -0.513675 1.6733
lowerneck -11.2201 0.410495 -1.73136
upperneck 29.839 1.01601 -0.104918
head 11.5543 0.246258 0.393031
rclavicle -1.14301e-014 9.93923e-015
rhumerus -25.3566 -15.2772 -79.6999
rradius 25.5262
rwrist 29.339
rhand -18.7183 -26.4016
rfingers 7.12502
rthumb 7.57708 -56.2459
lclavicle -1.14301e-014 9.93923e-015
lhumerus -20.5189 -0.708844 88.0122
lradius 18.8588
lwrist 6.20429
lhand -26.2697 -4.13471
lfingers 7.12502
lthumb 0.285226 25.8448
rfemur -17.9914 -2.18276 20.1195
rtibia 28.4974
rfoot -15.7208 -3.82104
rtoes 8.30318
lfemur -17.4284 8.29327 -18.3839
ltibia 27.0127
lfoot -13.4543 6.44418
ltoes -2.51838
144
root 0.560034 17.3943 -14.48 6.69797 -0.270399 -1.66545
lowerback 1.24867 -0.688948 0.42471
upperback 4.27449 -0.980576 1.87039
thorax 3.7228 -0.511202 1.66851
lowerneck -11.2403 0.409417 -1.72869
upperneck 29.8542 1.01571 -0.108667
head 11.5644 0.245794 0.391294
rclavicle -4.57205e-015 8.34896e-015
rhumerus -25.3352 -15.2618 -79.7117
rradius 25.539
rwrist 29.3289
rhand -18.7149 -26.4007
rfingers 7.12502
rthumb 7.58039 -56.2449
lclavicle -4.57205e-015 8.34896e-015
lhumerus -20.4878 -0.71163 88.0119
lradius 18.87
lwrist 6.21946
lhand -26.2727 -4.11651
lfingers 7.12502
lthumb 0.282317 25.863
rfemur -17.9919 -2.18204 20.1205
rtibia 28.5008
rfoot -15.72 -3.82008
rtoes 8.30525
lfemur -17.4295 8.29546 -18.3831
ltibia 27.0159
lfoot -13.4498 6.44644
ltoes -2.53446
145
root 0.560054 17.3941 -14.481 6.69412 -0.272507 -1.66526
lowerback 1.24905 -0.68559 0.426532
upperback 4.27233 -0.975999 1.86827
thorax 3.72015 -0.508803 1.6654
lowerneck -11.26 0.409337 -1.73188
upperneck 29.8659 1.01705 -0.108578
head 11.573 0.245917 0.39219
rclavicle -9.14409e-015 -1.98785e-014
rhumerus -25.3131 -15.2462 -79.7219
rradius 25.5533
rwrist 29.3178
rhand -18.7106 -26.4059
rfingers 7.12502
rthumb 7.5845 -56.2499
lclavicle -9.14409e-015 -1.98785e-014
lhumerus -20.4569 -0.713141 88.0133
lradius 18.8814
lwrist 6.24528
lhand -26.2812 -4.10103
lfingers 7.12502
lthumb 0.274158 25.8785
rfemur -17.9945 -2.18176 20.1202
rtibia 28.5061
rfoot -15.7187 -3.81825
rtoes 8.30415
lfemur -17.4325 8.29785 -18.3837
ltibia 27.0225
lfoot -13.4478 6.44913
ltoes -2.54806
146
root 0.560105 17.3938 -14.4821 6.69054 -0.274453 -1.66576
lowerback 1.25003 -0.682103 0.429491
upperback 4.27047 -0.971266 1.8664
thorax 3.71744 -0.506293 1.66193
lowerneck -11.284 0.409844 -1.73781
upperneck 29.878 1.01932 -0.106172
head 11.5826 0.246422 0.394558
rclavicle 2.28602e-015 -1.35174e-014
rhumerus -25.2918 -15.2316 -79.7315
rradius 25.5712
rwrist 29.3029
rhand -18.7092 -26.4145
rfingers 7.12502
rthumb 7.58588 -56.2584
lclavicle 2.28602e-015 -1.35174e-014
lhumerus -20.4272 -0.718799 88.0155
lradius 18.895
lwrist 6.28152
lhand -26.2831 -4.07413
lfingers 7.12502
lthumb 0.272298 25.9054
rfemur -17.9991 -2.18072 20.1203
rtibia 28.5139
rfoot -15.7174 -3.81717
rtoes 8.30027
lfemur -17.4379 8.29881 -18.3836
ltibia 27.0332
lfoot -13.4491 6.45343
ltoes -2.55761
147
root 0.560164 17.3934 -14.4834 6.68564 -0.275483 -1.6677
lowerback 1.25532 -0.679223 0.43344
upperback 4.26813 -0.967307 1.86569
thorax 3.71182 -0.504152 1.65913
lowerneck -11.3084 0.411587 -1.74855
upperneck 29.8892 1.02347 -0.100288
head 11.5919 0.247674 0.399293
rclavicle 1.63003e-014 -4.05521e-014
rhumerus -25.27 -15.216 -79.7402
rradius 25.5902
rwrist 29.284
rhand -18.7117 -26.4205
rfingers 7.12502
rthumb 7.58346 -56.2646
lclavicle 1.63003e-014 -4.05521e-014
lhumerus -20.4008 -0.730093 88.0195
lradius 18.9126
lwrist 6.32641
lhand -26.2819 -4.0481
lfingers 7.12502
lthumb 0.273473 25.9315
rfemur -18.0042 -2.18025 20.1223
rtibia 28.5246
rfoot -15.7168 -3.81721
rtoes 8.29228
lfemur -17.4443 8.29915 -18.3814
ltibia 27.0483
lfoot -13.4534 6.45625
ltoes -2.55634
148
root 0.56026 17.393 -14.4848 6.67912 -0.278489 -1.67086
lowerback 1.26391 -0.676487 0.438441
upperback 4.2652 -0.963506 1.86562
thorax 3.70374 -0.502062 1.65643
lowerneck -11.3265 0.414837 -1.76473
upperneck 29.8965 1.02983 -0.0908754
head 11.5982 0.249792 0.406523
rclavicle 1.49089e-015 -4.77083e-015
rhumerus -25.2487 -15.2 -79.748
rradius 25.6092
rwrist 29.2634
rhand -18.7119 -26.423
rfingers 7.12502
rthumb 7.58324 -56.2671
lclavicle 1.49089e-015 -4.77083e-015
lhumerus -20.3796 -0.743078 88.0234
lradius 18.9335
lwrist 6.37351
lhand -26.2799 -4.03034
lfingers 7.12502
lthumb 0.275444 25.9492
rfemur -18.0099 -2.17801 20.1251
rtibia 28.5388
rfoot -15.7178 -3.81614
rtoes 8.28942
lfemur -17.4516 8.30043 -18.378
ltibia 27.0683
lfoot -13.4598 6.46071
ltoes -2.55143
149
root 0.560405 17.3924 -14.4864 6.67129 -0.280891 -1.67419
lowerback 1.27635 -0.673767 0.444867
upperback 4.26168 -0.95965 1.86512
thorax 3.69282 -0.499882 1.65254
lowerneck -11.3435 0.418624 -1.77912
upperneck 29.9048 1.03684 -0.0824879
head 11.6048 0.252266 0.413152
rclavicle 2.68359e-015 -2.26615e-014
rhumerus -25.227 -15.1881 -79.7546
rradius 25.6271
rwrist 29.242
rhand -18.7098 -26.4298
rfingers 7.12502
rthumb 7.5853 -56.2738
lclavicle 2.68359e-015 -2.26615e-014
lhumerus -20.3627 -0.760658 88.0269
lradius 18.9605
lwrist 6.42012
lhand -26.2802 -4.03679
lfingers 7.12502
lthumb 0.275116 25.9428
rfemur -18.0167 -2.17723 20.1282
rtibia 28.5569
rfoot -15.7197 -3.81461
rtoes 8.27971
lfemur -17.4608 8.3008 -18.3746
ltibia 27.0932
lfoot -13.4676 6.46573
ltoes -2.5453
150
root 0.560597 17.3916 -14.4883 6.66391 -0.283877 -1.67803
lowerback 1.29079 -0.671246 0.452409
upperback 4.25801 -0.956033 1.86471
thorax 3.68061 -0.497784 1.64813
lowerneck -11.3579 0.423586 -1.79235
upperneck 29.9109 1.04546 -0.0751021
head 11.6099 0.2555 0.419401
rclavicle 4.37326e-015 -1.55052e-014
rhumerus -25.2046 -15.1754 -79.7611
rradius 25.6449
rwrist 29.2188
rhand -18.7084 -26.4377
rfingers 7.12502
rthumb 7.58659 -56.2816
lclavicle 4.37326e-015 -1.55052e-014
lhumerus -20.3479 -0.777631 88.0297
lradius 18.9916
lwrist 6.4618
lhand -26.28 -4.05601
lfingers 7.12502
lthumb 0.275296 25.9236
rfemur -18.0277 -2.17728 20.132
rtibia 28.5788
rfoot -15.7219 -3.81194
rtoes 8.2767
lfemur -17.4741 8.30119 -18.3712
ltibia 27.122
lfoot -13.4742 6.47191
ltoes -2.54755
151
root 0.560813 17.3908 -14.4904 6.65676 -0.287002 -1.68119
lowerback 1.30588 -0.668438 0.459383
upperback 4.2555 -0.952029 1.86397
thorax 3.66923 -0.495513 1.64372
lowerneck -11.3749 0.428435 -1.79657
upperneck 29.9173 1.05412 -0.0753328
head 11.6158 0.258812 0.421288
rclavicle -9.93923e-015 1.35174e-014
rhumerus -25.1802 -15.1654 -79.7666
rradius 25.6615
rwrist 29.1958
rhand -18.7126 -26.4382
rfingers 7.12502
rthumb 7.58251 -56.2823
lclavicle -9.93923e-015 1.35174e-014
lhumerus -20.3324 -0.798528 88.0332
lradius 19.0224
lwrist 6.50405
lhand -26.2987 -4.1157
lfingers 7.12502
lthumb 0.257215 25.8639
rfemur -18.0422 -2.17924 20.1349
rtibia 28.6044
rfoot -15.7249 -3.8062
rtoes 8.2763
lfemur -17.4906 8.30111 -18.3689
ltibia 27.1549
lfoot -13.4808 6.47839
ltoes -2.55247
